<svg width="22" height="22" viewBox="0 0 22 22" fill="none" xmlns="http://www.w3.org/2000/svg">
<path d="M10.9998 20.9999C13.3559 20.9999 15.266 16.5229 15.266 11.0002C15.266 5.47751 13.3559 1.00049 10.9998 1.00049C8.64358 1.00049 6.73352 5.47751 6.73352 11.0002C6.73352 16.5229 8.64358 20.9999 10.9998 20.9999Z" stroke="#626262" stroke-width="1.5" stroke-miterlimit="10" stroke-linecap="round" stroke-linejoin="round"/>
<path d="M1.67725 7.65942H20.3223" stroke="#626262" stroke-width="1.5" stroke-miterlimit="10" stroke-linecap="round" stroke-linejoin="round"/>
<path d="M19.9995 14H1.99951" stroke="#626262" stroke-width="1.5" stroke-miterlimit="10" stroke-linecap="round" stroke-linejoin="round"/>
<path d="M10.9997 20.9999C16.5224 20.9999 20.9994 16.5229 20.9994 11.0002C20.9994 5.47751 16.5224 1.00049 10.9997 1.00049C5.47702 1.00049 1 5.47751 1 11.0002C1 16.5229 5.47702 20.9999 10.9997 20.9999Z" stroke="#626262" stroke-width="1.5" stroke-miterlimit="10" stroke-linecap="round" stroke-linejoin="round"/>
</svg>
