<svg width="32" height="32" viewBox="0 0 32 32" fill="none" xmlns="http://www.w3.org/2000/svg">
<path d="M16.1026 8.1032C11.7221 8.1032 8.23146 11.6623 8.23146 15.9743C8.23146 20.3547 11.7221 23.8454 16.1026 23.8454C20.4145 23.8454 23.9736 20.3547 23.9736 15.9743C23.9736 11.6623 20.4145 8.1032 16.1026 8.1032ZM16.1026 21.1076C13.2963 21.1076 10.9692 18.849 10.9692 15.9743C10.9692 13.1681 13.2279 10.9094 16.1026 10.9094C18.9088 10.9094 21.1674 13.1681 21.1674 15.9743C21.1674 18.849 18.9088 21.1076 16.1026 21.1076ZM26.0954 7.82943C26.0954 6.80276 25.2741 5.98143 24.2474 5.98143C23.2208 5.98143 22.3994 6.80276 22.3994 7.82943C22.3994 8.85609 23.2208 9.67742 24.2474 9.67742C25.2741 9.67742 26.0954 8.85609 26.0954 7.82943ZM31.2972 9.67742C31.1603 7.21343 30.6127 5.02321 28.8332 3.24366C27.0536 1.46411 24.8634 0.916557 22.3994 0.779668C19.867 0.64278 12.2697 0.64278 9.73724 0.779668C7.27324 0.916557 5.15147 1.46411 3.30348 3.24366C1.52393 5.02321 0.976371 7.21343 0.839483 9.67742C0.702594 12.2099 0.702594 19.8072 0.839483 22.3396C0.976371 24.8036 1.52393 26.9254 3.30348 28.7734C5.15147 30.5529 7.27324 31.1005 9.73724 31.2374C12.2697 31.3743 19.867 31.3743 22.3994 31.2374C24.8634 31.1005 27.0536 30.5529 28.8332 28.7734C30.6127 26.9254 31.1603 24.8036 31.2972 22.3396C31.4341 19.8072 31.4341 12.2099 31.2972 9.67742ZM28.0119 25.0089C27.5327 26.3778 26.4376 27.4045 25.1372 27.952C23.0839 28.7734 18.2928 28.568 16.1026 28.568C13.8439 28.568 9.05279 28.7734 7.06791 27.952C5.69903 27.4045 4.67236 26.3778 4.12481 25.0089C3.30348 23.0241 3.50881 18.233 3.50881 15.9743C3.50881 13.7841 3.30348 8.99298 4.12481 6.93965C4.67236 5.63921 5.69903 4.61255 7.06791 4.06499C9.05279 3.24366 13.8439 3.44899 16.1026 3.44899C18.2928 3.44899 23.0839 3.24366 25.1372 4.06499C26.4376 4.5441 27.4643 5.63921 28.0119 6.93965C28.8332 8.99298 28.6279 13.7841 28.6279 15.9743C28.6279 18.233 28.8332 23.0241 28.0119 25.0089Z" fill="black"/>
</svg>
