<svg width="31" height="32" viewBox="0 0 31 32" fill="none" xmlns="http://www.w3.org/2000/svg">
<path d="M28.6217 0.642578H2.2707C1.10715 0.642578 0.148926 1.66924 0.148926 2.90124V29.1154C0.148926 30.3474 1.10715 31.3056 2.2707 31.3056H28.6217C29.7853 31.3056 30.812 30.3474 30.812 29.1154V2.90124C30.812 1.66924 29.7853 0.642578 28.6217 0.642578ZM9.3889 26.9252H4.87158V12.3465H9.3889V26.9252ZM7.13024 10.2932C5.62447 10.2932 4.46091 9.12967 4.46091 7.69234C4.46091 6.25501 5.62447 5.02301 7.13024 5.02301C8.56757 5.02301 9.73112 6.25501 9.73112 7.69234C9.73112 9.12967 8.56757 10.2932 7.13024 10.2932ZM26.4315 26.9252H21.8458V19.807C21.8458 18.1643 21.8458 15.9741 19.5187 15.9741C17.1231 15.9741 16.7809 17.8221 16.7809 19.7385V26.9252H12.2636V12.3465H16.5755V14.3314H16.644C17.26 13.1679 18.7658 11.9359 20.956 11.9359C25.5417 11.9359 26.4315 15.0159 26.4315 18.9172V26.9252Z" fill="black"/>
</svg>
