<svg width="216" height="124" viewBox="0 0 216 124" fill="none" xmlns="http://www.w3.org/2000/svg">
<path d="M108.151 39.2938H103.097C101.868 39.2938 100.869 38.2894 100.869 37.054V31.5325C100.869 30.2971 101.868 29.2927 103.097 29.2927H108.151C109.38 29.2927 110.379 30.2971 110.379 31.5325V37.054C110.379 38.2894 109.385 39.2938 108.151 39.2938Z" fill="#FDC300"/>
<path d="M9.76086 121.223V120.353C9.77689 120.675 9.77689 120.965 9.76086 121.223Z" fill="white"/>
<path d="M33.0282 120.595C33.0336 120.826 33.0282 121.035 33.0122 121.234V119.719C33.0175 120.01 33.0229 120.305 33.0282 120.595Z" fill="white"/>
<path d="M166.311 118.683V121.105C166.322 120.907 166.327 120.697 166.327 120.482C166.322 119.924 166.316 119.322 166.311 118.683Z" fill="white"/>
<path d="M110.881 120.821V118.71C110.918 119.414 110.929 120.117 110.881 120.821Z" fill="white"/>
<path d="M182.424 120.901C182.43 121.116 182.424 121.31 182.403 121.492V118.796C182.403 119.494 182.414 120.198 182.424 120.901Z" fill="white"/>
<path d="M55.9481 121.374V121.873C55.9481 123.044 55.0078 123.995 53.8378 123.995H47.1381C46.4382 123.995 45.8665 123.426 45.8665 122.717V114.547C45.8665 114.445 45.8719 114.348 45.8933 114.252C45.8986 111.378 45.9307 108.51 45.7971 105.647C45.5887 101.114 43.5211 98.9925 39.7065 99.0945C36.1483 99.1912 33.087 102.355 33.0175 106.201C32.9694 108.827 32.948 111.459 32.9534 114.085C32.9587 115.965 32.9748 117.845 33.0068 119.725V122.717C33.0068 123.42 32.4405 123.995 31.7353 123.995H24.2021C23.5023 123.995 22.9306 123.426 22.9306 122.717V117.84C22.9253 117.319 22.9253 116.755 22.9253 116.137C22.9199 112.63 22.9787 109.117 22.8131 105.62C22.6742 102.763 21.4721 100.367 18.6031 99.3899C16.2897 98.6004 13.8107 98.8689 12.2667 100.813C11.0967 102.28 10.1564 104.331 10.0388 106.184C9.78237 110.009 9.761 114.005 9.761 117.818V122.722C9.761 123.426 9.19468 124 8.48945 124H2.11034C0.940304 124 0 123.05 0 121.879V90.6458C0 89.4749 0.940304 88.5242 2.11034 88.5242H9.24276C9.94265 88.5242 10.5143 89.0935 10.5143 89.8025V94.1262C17.8604 87.2942 25.5111 89.738 31.0354 96.5916C34.6417 91.8328 39.2844 89.346 45.3056 90.4041C51.4443 91.489 55.323 95.8665 55.697 102.554C55.9107 106.421 55.9214 110.299 55.9214 114.177C55.916 116.578 55.9107 118.973 55.9481 121.374Z" fill="black"/>
<path d="M94.9119 90.6458C94.9119 89.4749 93.9716 88.5242 92.8015 88.5242H85.6264C84.9479 88.5242 84.4029 89.0774 84.4029 89.7542V92.7244C76.7309 88.6209 69.2886 89.8401 64.2825 95.9685C59.3673 101.984 59.3566 111.942 64.2451 118.049C69.171 124.194 76.5332 125.316 83.6389 121.573C84.0022 121.347 84.4189 120.976 84.7609 120.676V122.652C84.7609 123.393 85.3592 123.995 86.0965 123.995H92.7321C93.8968 123.995 94.8424 123.044 94.8424 121.873V114.773C94.9065 108.881 94.9386 103.606 94.8905 97.2952C94.9065 97.1878 94.9172 97.0804 94.9172 96.9676V90.6458H94.9119ZM78.0184 114.945C73.5039 114.982 70.5227 111.813 70.496 106.958C70.4693 102.14 73.4452 99.0569 78.0612 99.0892C82.2872 99.1321 85.0814 102.178 85.1776 106.861C85.2684 111.518 82.2658 114.907 78.0184 114.945Z" fill="black"/>
<path d="M132.289 123.275C129.153 123.297 126.775 123.329 124.088 123.189C123.051 123.227 122.287 122.201 121.716 121.524C118.815 118.103 115.962 114.639 112.932 110.986C112.826 110.857 112.623 110.847 112.516 110.975C111.49 112.125 111.052 113.35 110.875 114.612C110.699 115.949 110.817 117.324 110.875 118.71V121.868C110.875 123.039 109.93 123.99 108.765 123.99H102.087C101.376 123.99 100.794 123.41 100.794 122.69V114.542C100.794 114.472 100.799 114.397 100.805 114.322C100.805 114.322 100.805 114.316 100.805 114.311C100.794 108.29 100.794 101.512 100.805 95.8451C100.805 95.8397 100.805 95.8343 100.805 95.8343C100.799 95.7645 100.794 95.6947 100.794 95.6248V79.2214C100.794 78.0559 101.734 77.1052 102.899 77.1052H108.626C109.786 77.1052 110.731 78.0505 110.731 79.2214V79.3987C110.742 79.4309 110.747 79.4578 110.747 79.49L110.934 99.5243C110.94 99.7713 111.239 99.8895 111.41 99.7069C112.313 98.7293 114.364 96.5164 115.876 94.8568C116.111 94.5936 116.341 94.3411 116.56 94.0994C116.715 93.9329 116.87 93.7664 117.009 93.6053C117.02 93.5946 117.03 93.5892 117.036 93.5784C121.165 89.0936 121.801 89.0936 122.875 89.0936H130.157C131.322 89.0936 132.454 90.0496 131.279 91.2152L131.017 91.4461C131.012 91.4945 130.99 91.5374 130.958 91.575C127.058 95.7323 123.148 99.8949 119.167 104.138C119.071 104.24 119.066 104.396 119.157 104.503C123.757 110.084 128.255 115.541 133.138 121.455C133.731 122.169 133.224 123.27 132.289 123.275Z" fill="black"/>
<path d="M166.284 115.245C166.236 107.677 166.183 97.6924 166.14 93.2559V89.8345C166.14 89.1147 165.558 88.5293 164.842 88.5293H157.741C156.571 88.5293 155.631 89.48 155.631 90.6509V92.5845C148.077 88.626 140.57 89.9634 135.719 95.9683C130.729 102.145 130.798 112.146 135.874 118.296C140.709 124.161 148.317 125.295 154.931 121.691C155.508 121.341 155.93 120.89 156.213 120.45V122.684C156.213 123.404 156.796 123.989 157.512 123.989H164.206C165.365 123.989 166.311 123.044 166.311 121.873V118.683C166.306 117.625 166.295 116.465 166.284 115.245ZM149.508 114.939C145.074 115.004 141.847 111.657 141.815 106.947C141.788 102.269 144.989 99.0298 149.567 99.105C153.857 99.1749 156.502 102.193 156.491 107.017C156.486 111.759 153.74 114.869 149.508 114.939Z" fill="black"/>
<path d="M204.249 115.326C204.255 115.396 204.26 115.471 204.26 115.546V122.679C204.26 123.404 203.678 123.99 202.956 123.99H195.616C194.894 123.99 194.312 123.404 194.312 122.679V115.546C194.312 115.433 194.323 115.321 194.344 115.213C194.328 111.196 194.344 107.162 193.986 103.166C193.66 99.5511 191.069 98.219 187.639 99.4222C184.535 100.507 182.441 103.429 182.425 106.781C182.409 109.617 182.393 112.452 182.393 115.288C182.393 116.459 182.398 117.63 182.414 118.801V122.33C182.414 123.248 181.671 124 180.752 124H174.411C173.241 124 172.3 123.05 172.3 121.879V90.6458C172.3 90.6404 172.3 90.6404 172.3 90.635C172.306 89.4695 173.246 88.5242 174.411 88.5242H181.506C182.227 88.5242 182.809 89.1096 182.809 89.8347V94.6043C183.322 94.1477 183.84 93.6751 184.364 93.2078C187.922 90.0979 191.908 89.2063 196.385 90.8767C201.017 92.6062 203.619 96.178 203.934 100.872C204.265 105.669 204.287 110.492 204.255 115.315C204.249 115.321 204.249 115.326 204.249 115.326Z" fill="black"/>
<path d="M182.403 115.547V118.796C182.387 117.626 182.382 116.455 182.382 115.284C182.398 115.37 182.403 115.456 182.403 115.547Z" fill="white"/>
<path d="M166.311 115.546V118.683C166.306 117.619 166.295 116.465 166.284 115.245C166.306 115.342 166.311 115.444 166.311 115.546Z" fill="white"/>
<path d="M110.881 114.611V118.709C110.822 117.324 110.705 115.943 110.881 114.611Z" fill="white"/>
<path d="M55.9482 114.542V121.374C55.9108 118.973 55.9161 116.577 55.9108 114.171C55.9375 114.295 55.9482 114.418 55.9482 114.542Z" fill="white"/>
<path d="M33.0123 114.542V119.72C32.9749 117.84 32.9642 115.96 32.9589 114.08C32.9963 114.23 33.0123 114.386 33.0123 114.542Z" fill="white"/>
<path d="M186.608 40.4168C185.956 40.3201 184.941 40.0193 183.365 39.364C169.169 32.5535 155.059 25.5495 140.795 18.8786C134.33 15.8546 127.614 13.3517 120.936 10.795C110.849 6.93321 100.821 7.52403 90.686 11.069C77.3775 15.7257 65.2497 22.7458 52.9563 29.4489C47.1221 32.634 41.3841 36.0286 35.4324 38.9666C32.8519 40.2342 30.9927 41.3728 28.1344 41.5662C25.2547 41.7488 23.3901 38.6765 25.0677 36.3186C26.1629 34.7771 27.52 34.1809 29.1548 33.2678C48.0678 22.6921 66.6494 11.4933 86.9141 3.51181C101.996 -2.43939 116.448 -0.40374 130.483 6.43907C134.779 8.53918 139.021 10.736 143.231 13.0079V7.92687C143.231 6.46055 144.412 5.26816 145.875 5.26816H154.75C156.203 5.26816 157.389 6.45518 157.389 7.92687V20.8874C166.594 26.0866 175.575 31.7048 184.626 37.1834C185.325 37.6077 186.554 38.5047 187.233 39.262C187.666 39.7454 187.254 40.5135 186.608 40.4168Z" fill="#FDC300"/>
<path d="M67.4243 52.3777C68.2257 52.1897 69.0111 51.8889 69.8232 51.8405C75.7321 51.4807 111.603 49.0583 146.426 48.5266C172.696 48.1291 212.044 49.7512 213.465 50.3474C216.056 51.4377 216.083 53.8332 213.551 54.988C212.311 55.5574 210.751 55.8635 209.341 55.8528C199.024 55.7937 176.393 53.0437 149.674 52.6408C114.942 52.1145 75.5131 53.8869 69.914 53.5378C69.0805 53.4841 68.2631 53.2156 67.4403 53.0437C67.435 52.8235 67.4297 52.5979 67.4243 52.3777Z" fill="#FDC300"/>
</svg>
