<svg width="201" height="26" viewBox="0 0 201 26" fill="none" xmlns="http://www.w3.org/2000/svg">
<rect width="199.854" height="25.0346" transform="translate(0.320801 0.914795)" fill="white"/>
<path d="M8.93584 9.16858L9.4141 9.09885L9.62788 8.66539L12.8202 2.19274C12.8202 2.19267 12.8203 2.19261 12.8203 2.19254C12.8203 2.19249 12.8204 2.19244 12.8204 2.19239C13.0552 1.71737 13.7385 1.71234 13.9777 2.19324C13.9778 2.19352 13.978 2.19381 13.9781 2.19409L17.1697 8.66539L17.3835 9.09885L17.8618 9.16858L25.0046 10.2099L25.0052 10.21C25.5309 10.2863 25.7441 10.9376 25.3611 11.3105L25.3608 11.3108L20.1932 16.3464L19.8468 16.684L19.9287 17.1607L21.1508 24.2735C21.1508 24.2736 21.1508 24.2736 21.1508 24.2737C21.2401 24.796 20.6875 25.1997 20.2167 24.9522L20.2165 24.9521L13.8267 21.5934L13.3988 21.3685L12.971 21.5934L6.58109 24.9521L6.57821 24.9536C6.11393 25.1998 5.55693 24.8018 5.64672 24.2742C5.64673 24.2741 5.64673 24.2741 5.64674 24.2741C5.64677 24.2739 5.6468 24.2737 5.64683 24.2735L6.86896 17.1607L6.95087 16.684L6.60445 16.3464L1.43681 11.3108L1.43655 11.3105C1.0535 10.9376 1.26671 10.2863 1.79239 10.21L1.79306 10.2099L8.93584 9.16858Z" fill="#F36523" stroke="#F36523" stroke-width="1.8391"/>
<path d="M49.8046 9.16858L50.2829 9.09885L50.4967 8.66539L53.689 2.19274C53.689 2.19267 53.689 2.19261 53.6891 2.19254C53.6891 2.19249 53.6891 2.19244 53.6892 2.19239C53.924 1.71737 54.6072 1.71234 54.8464 2.19324C54.8466 2.19352 54.8467 2.19381 54.8469 2.19409L58.0385 8.66539L58.2523 9.09885L58.7306 9.16858L65.8733 10.2099L65.874 10.21C66.3997 10.2863 66.6129 10.9376 66.2299 11.3105L66.2296 11.3108L61.062 16.3464L60.7155 16.684L60.7974 17.1607L62.0196 24.2735C62.0196 24.2736 62.0196 24.2736 62.0196 24.2737C62.1089 24.796 61.5563 25.1997 61.0855 24.9522L61.0853 24.9521L54.6954 21.5934L54.2676 21.3685L53.8398 21.5934L47.4499 24.9521L47.447 24.9536C46.9827 25.1998 46.4257 24.8018 46.5155 24.2742C46.5155 24.2741 46.5155 24.2741 46.5155 24.2741C46.5155 24.2739 46.5156 24.2737 46.5156 24.2735L47.7377 17.1607L47.8196 16.684L47.4732 16.3464L42.3056 11.3108L42.3053 11.3105C41.9223 10.9376 42.1355 10.2863 42.6612 10.21L42.6618 10.2099L49.8046 9.16858Z" fill="#F36523" stroke="#F36523" stroke-width="1.8391"/>
<path d="M90.6734 9.16858L91.1516 9.09885L91.3654 8.66539L94.5578 2.19274C94.5578 2.19267 94.5578 2.19261 94.5579 2.19254C94.5579 2.19249 94.5579 2.19244 94.5579 2.19239C94.7928 1.71737 95.476 1.71234 95.7152 2.19324C95.7154 2.19352 95.7155 2.19381 95.7156 2.19409L98.9073 8.66539L99.1211 9.09885L99.5993 9.16858L106.742 10.2099L106.743 10.21C107.268 10.2863 107.482 10.9376 107.099 11.3105L107.098 11.3108L101.931 16.3464L101.584 16.684L101.666 17.1607L102.888 24.2735C102.888 24.2736 102.888 24.2736 102.888 24.2737C102.978 24.796 102.425 25.1997 101.954 24.9522L101.954 24.9521L95.5642 21.5934L95.1364 21.3685L94.7085 21.5934L88.3186 24.9521L88.3158 24.9536C87.8515 25.1998 87.2945 24.8018 87.3843 24.2742C87.3843 24.2741 87.3843 24.2741 87.3843 24.2741C87.3843 24.2739 87.3843 24.2737 87.3844 24.2735L88.6065 17.1607L88.6884 16.684L88.342 16.3464L83.1744 11.3108L83.1741 11.3105C82.791 10.9376 83.0043 10.2863 83.5299 10.21L83.5306 10.2099L90.6734 9.16858Z" fill="#F36523" stroke="#F36523" stroke-width="1.8391"/>
<path d="M131.542 9.16858L132.021 9.09885L132.234 8.66539L135.427 2.19274C135.427 2.19267 135.427 2.19261 135.427 2.19254C135.427 2.19249 135.427 2.19244 135.427 2.19239C135.662 1.71737 136.345 1.71234 136.584 2.19324C136.584 2.19352 136.584 2.19381 136.585 2.19409L139.776 8.66539L139.99 9.09885L140.468 9.16858L147.611 10.2099L147.612 10.21C148.137 10.2863 148.351 10.9376 147.968 11.3105L147.967 11.3108L142.8 16.3464L142.453 16.684L142.535 17.1607L143.757 24.2735C143.757 24.2736 143.757 24.2736 143.757 24.2737C143.847 24.796 143.294 25.1997 142.823 24.9522L142.823 24.9521L136.433 21.5934L136.005 21.3685L135.577 21.5934L129.188 24.9521L129.185 24.9536C128.72 25.1998 128.163 24.8018 128.253 24.2742C128.253 24.2741 128.253 24.2741 128.253 24.2741C128.253 24.2739 128.253 24.2737 128.253 24.2735L129.475 17.1607L129.557 16.684L129.211 16.3464L124.043 11.3108L124.043 11.3105C123.66 10.9376 123.873 10.2863 124.399 10.21L124.4 10.2099L131.542 9.16858Z" fill="#F36523" stroke="#F36523" stroke-width="1.8391"/>
<path d="M172.411 9.16858L172.889 9.09885L173.103 8.66539L176.295 2.19274C176.295 2.19267 176.295 2.19261 176.296 2.19254C176.296 2.19249 176.296 2.19244 176.296 2.19239C176.53 1.71737 177.214 1.71234 177.453 2.19324C177.453 2.19352 177.453 2.19381 177.453 2.19409L180.645 8.66539L180.859 9.09885L181.337 9.16858L188.48 10.2099L188.48 10.21C189.006 10.2863 189.219 10.9376 188.836 11.3105L188.836 11.3108L183.668 16.3464L183.322 16.684L183.404 17.1607L184.626 24.2735C184.626 24.2736 184.626 24.2736 184.626 24.2737C184.715 24.796 184.163 25.1997 183.692 24.9522L183.692 24.9521L177.302 21.5934L176.874 21.3685L176.446 21.5934L170.056 24.9521L170.053 24.9536C169.589 25.1998 169.032 24.8018 169.122 24.2742C169.122 24.2741 169.122 24.2741 169.122 24.2741C169.122 24.2739 169.122 24.2737 169.122 24.2735L170.344 17.1607L170.426 16.684L170.08 16.3464L164.912 11.3108L164.912 11.3105C164.529 10.9376 164.742 10.2863 165.268 10.21L165.268 10.2099L172.411 9.16858Z" stroke="#F36523" stroke-width="1.8391"/>
</svg>
