<svg width="200" height="26" viewBox="0 0 200 26" fill="none" xmlns="http://www.w3.org/2000/svg">
<rect width="199.443" height="25.0346" transform="translate(0.188721 0.165527)" fill="white"/>
<path d="M11.8636 1.03638L8.6711 7.50938L1.52832 8.55073C0.247412 8.73651 -0.26593 10.3156 0.662974 11.2201L5.83061 16.2557L4.60837 23.3692C4.38837 24.655 5.74261 25.6181 6.87685 25.0168L13.2667 21.6581L19.6566 25.0168C20.7909 25.6132 22.1451 24.655 21.9251 23.3692L20.7029 16.2557L25.8705 11.2201C26.7994 10.3156 26.2861 8.73651 25.0051 8.55073L17.8624 7.50938L14.6699 1.03638C14.0979 -0.117413 12.4405 -0.13208 11.8636 1.03638Z" fill="#F36523"/>
<path d="M52.7324 1.03638L49.5399 7.50938L42.3971 8.55073C41.1162 8.73651 40.6028 10.3156 41.5317 11.2201L46.6994 16.2557L45.4771 23.3692C45.2571 24.655 46.6114 25.6181 47.7456 25.0168L54.1355 21.6581L60.5254 25.0168C61.6596 25.6132 63.0139 24.655 62.7939 23.3692L61.5716 16.2557L66.7393 11.2201C67.6682 10.3156 67.1548 8.73651 65.8739 8.55073L58.7311 7.50938L55.5386 1.03638C54.9666 -0.117413 53.3093 -0.13208 52.7324 1.03638Z" fill="#F36523"/>
<path d="M93.6011 1.03638L90.4087 7.50938L83.2659 8.55073C81.985 8.73651 81.4716 10.3156 82.4005 11.2201L87.5682 16.2557L86.3459 23.3692C86.1259 24.655 87.4802 25.6181 88.6144 25.0168L95.0043 21.6581L101.394 25.0168C102.528 25.6132 103.883 24.655 103.663 23.3692L102.44 16.2557L107.608 11.2201C108.537 10.3156 108.024 8.73651 106.743 8.55073L99.5999 7.50938L96.4074 1.03638C95.8354 -0.117413 94.178 -0.13208 93.6011 1.03638Z" fill="#F36523"/>
<path d="M131.41 8.41931L131.888 8.34958L132.102 7.91612L135.295 1.44347C135.295 1.44341 135.295 1.44334 135.295 1.44327C135.295 1.44322 135.295 1.44318 135.295 1.44313C135.53 0.968107 136.213 0.963071 136.452 1.44397C136.452 1.44426 136.452 1.44454 136.452 1.44482L139.644 7.91612L139.858 8.34958L140.336 8.41931L147.479 9.46066L147.48 9.46076C148.005 9.537 148.218 10.1883 147.835 10.5613L147.835 10.5615L142.668 15.5972L142.321 15.9347L142.403 16.4115L143.625 23.5243C143.625 23.5243 143.625 23.5243 143.625 23.5244C143.714 24.0467 143.162 24.4505 142.691 24.2029L142.691 24.2028L136.301 20.8441L135.873 20.6192L135.445 20.8441L129.055 24.2028L129.053 24.2043C128.588 24.4505 128.031 24.0526 128.121 23.5249C128.121 23.5249 128.121 23.5248 128.121 23.5248C128.121 23.5246 128.121 23.5244 128.121 23.5243L129.343 16.4115L129.425 15.9347L129.079 15.5972L123.911 10.5615L123.911 10.5613C123.528 10.1883 123.741 9.537 124.267 9.46076L124.267 9.46066L131.41 8.41931Z" stroke="#F36523" stroke-width="1.8391"/>
<path d="M172.279 8.41931L172.757 8.34958L172.971 7.91612L176.163 1.44347C176.163 1.44341 176.163 1.44334 176.163 1.44327C176.163 1.44322 176.163 1.44318 176.164 1.44313C176.398 0.968107 177.082 0.963071 177.321 1.44397C177.321 1.44426 177.321 1.44454 177.321 1.44482L180.513 7.91612L180.727 8.34958L181.205 8.41931L188.348 9.46066L188.348 9.46076C188.874 9.537 189.087 10.1883 188.704 10.5613L188.704 10.5615L183.536 15.5972L183.19 15.9347L183.272 16.4115L184.494 23.5243C184.494 23.5243 184.494 23.5243 184.494 23.5244C184.583 24.0467 184.031 24.4505 183.56 24.2029L183.56 24.2028L177.17 20.8441L176.742 20.6192L176.314 20.8441L169.924 24.2028L169.921 24.2043C169.457 24.4505 168.9 24.0526 168.99 23.5249C168.99 23.5249 168.99 23.5248 168.99 23.5248C168.99 23.5246 168.99 23.5244 168.99 23.5243L170.212 16.4115L170.294 15.9347L169.948 15.5972L164.78 10.5615L164.78 10.5613C164.397 10.1883 164.61 9.537 165.136 9.46076L165.136 9.46066L172.279 8.41931Z" stroke="#F36523" stroke-width="1.8391"/>
</svg>
