<svg width="201" height="26" viewBox="0 0 201 26" fill="none" xmlns="http://www.w3.org/2000/svg">
<rect width="200.326" height="25.0346" transform="translate(0.4729 0.914795)" fill="white"/>
<path d="M12.1478 1.78565L8.95528 8.25865L1.8125 9.3C0.531591 9.48578 0.0182495 11.0649 0.947154 11.9694L6.11479 17.005L4.89255 24.1185C4.67255 25.4043 6.02679 26.3674 7.16103 25.766L13.5509 22.4073L19.9408 25.766C21.075 26.3625 22.4293 25.4043 22.2093 24.1185L20.987 17.005L26.1547 11.9694C27.0836 11.0649 26.5702 9.48578 25.2893 9.3L18.1465 8.25865L14.9541 1.78565C14.382 0.631854 12.7247 0.617188 12.1478 1.78565Z" fill="#F36523"/>
<path d="M53.0167 1.78565L49.8242 8.25865L42.6814 9.3C41.4005 9.48578 40.8871 11.0649 41.8161 11.9694L46.9837 17.005L45.7614 24.1185C45.5414 25.4043 46.8957 26.3674 48.0299 25.766L54.4198 22.4073L60.8097 25.766C61.9439 26.3625 63.2982 25.4043 63.0782 24.1185L61.8559 17.005L67.0236 11.9694C67.9525 11.0649 67.4391 9.48578 66.1582 9.3L59.0154 8.25865L55.8229 1.78565C55.2509 0.631854 53.5936 0.617188 53.0167 1.78565Z" fill="#F36523"/>
<path d="M93.8853 1.78565L90.6928 8.25865L83.5501 9.3C82.2691 9.48578 81.7558 11.0649 82.6847 11.9694L87.8523 17.005L86.6301 24.1185C86.4101 25.4043 87.7643 26.3674 88.8986 25.766L95.2885 22.4073L101.678 25.766C102.813 26.3625 104.167 25.4043 103.947 24.1185L102.725 17.005L107.892 11.9694C108.821 11.0649 108.308 9.48578 107.027 9.3L99.8841 8.25865L96.6916 1.78565C96.1196 0.631854 94.4622 0.617188 93.8853 1.78565Z" fill="#F36523"/>
<path d="M134.754 1.78565L131.562 8.25865L124.419 9.3C123.138 9.48578 122.625 11.0649 123.554 11.9694L128.721 17.005L127.499 24.1185C127.279 25.4043 128.633 26.3674 129.767 25.766L136.157 22.4073L142.547 25.766C143.681 26.3625 145.036 25.4043 144.816 24.1185L143.593 17.005L148.761 11.9694C149.69 11.0649 149.177 9.48578 147.896 9.3L140.753 8.25865L137.56 1.78565C136.988 0.631854 135.331 0.617188 134.754 1.78565Z" fill="#F36523"/>
<path d="M175.623 1.78565L172.43 8.25865L165.288 9.3C164.007 9.48578 163.493 11.0649 164.422 11.9694L169.59 17.005L168.368 24.1185C168.148 25.4043 169.502 26.3674 170.636 25.766L177.026 22.4073L183.416 25.766C184.55 26.3625 185.904 25.4043 185.684 24.1185L184.462 17.005L189.63 11.9694C190.559 11.0649 190.045 9.48578 188.764 9.3L181.622 8.25865L178.429 1.78565C177.857 0.631854 176.2 0.617188 175.623 1.78565Z" fill="#F36523"/>
</svg>
