<svg width="38" height="28" viewBox="0 0 38 28" fill="none" xmlns="http://www.w3.org/2000/svg">
<path d="M37.1787 5.00786C36.768 3.3652 35.4676 2.06476 33.8934 1.65409C30.9503 0.832764 19.3148 0.832764 19.3148 0.832764C19.3148 0.832764 7.61079 0.832764 4.66769 1.65409C3.09347 2.06476 1.79303 3.3652 1.38237 5.00786C0.561035 7.88252 0.561035 14.0425 0.561035 14.0425C0.561035 14.0425 0.561035 20.134 1.38237 23.0771C1.79303 24.7198 3.09347 25.9518 4.66769 26.3625C7.61079 27.1154 19.3148 27.1154 19.3148 27.1154C19.3148 27.1154 30.9503 27.1154 33.8934 26.3625C35.4676 25.9518 36.768 24.7198 37.1787 23.0771C38 20.134 38 14.0425 38 14.0425C38 14.0425 38 7.88252 37.1787 5.00786ZM15.4819 19.5865V8.49852L25.201 14.0425L15.4819 19.5865Z" fill="black"/>
</svg>
